<svg xmlns="http://www.w3.org/2000/svg" xmlns:xlink="http://www.w3.org/1999/xlink" style="display:none">
  <!-- LinkedIn Icon -->
  <symbol id="linkedin" viewBox="0 0 256 256">
    <path d="M218.123 218.127h-37.931v-59.403c0-14.165-.253-32.4-19.728-32.4-19.756 0-22.779 15.434-22.779 31.369v60.43h-37.93V95.967h36.413v16.694h.51a39.907 39.907 0 0 1 35.928-19.733c38.445 0 45.533 25.288 45.533 58.186l-.016 67.013ZM56.955 79.27c-12.157.002-22.014-9.852-22.016-22.009-.002-12.157 9.851-22.014 22.008-22.016 12.157-.003 22.014 9.851 22.016 22.008A22.013 22.013 0 0 1 56.955 79.27m18.966 138.858H37.95V95.967h37.97v122.16ZM237.033.018H18.89C8.58-.098.125 8.161-.001 18.471v219.053c.122 10.315 8.576 18.582 18.89 18.474h218.144c10.336.128 18.823-8.139 18.966-18.474V18.454c-.147-10.33-8.635-18.588-18.966-18.453" fill="currentColor"/>
  </symbol>
  <!-- GitHub Icon -->
  <symbol id="github" viewBox="0 0 1024 1024">
    <path fill="currentColor" fill-rule="evenodd" clip-rule="evenodd" d="M8 0C3.58 0 0 3.58 0 8C0 11.54 2.29 14.53 5.47 15.59C5.87 15.66 6.02 15.42 6.02 15.21C6.02 15.02 6.01 14.39 6.01 13.72C4 14.09 3.48 13.23 3.32 12.78C3.23 12.55 2.84 11.84 2.5 11.65C2.22 11.5 1.82 11.13 2.49 11.12C3.12 11.11 3.57 11.7 3.72 11.94C4.44 13.15 5.59 12.81 6.05 12.6C6.12 12.08 6.33 11.73 6.56 11.53C4.78 11.33 2.92 10.64 2.92 7.58C2.92 6.71 3.23 5.99 3.74 5.43C3.66 5.23 3.38 4.41 3.82 3.31C3.82 3.31 4.49 3.1 6.02 4.13C6.66 3.95 7.34 3.86 8.02 3.86C8.7 3.86 9.38 3.95 10.02 4.13C11.55 3.09 12.22 3.31 12.22 3.31C12.66 4.41 12.38 5.23 12.3 5.43C12.81 5.99 13.12 6.7 13.12 7.58C13.12 10.65 11.25 11.33 9.47 11.53C9.76 11.78 10.01 12.26 10.01 13.01C10.01 14.08 10 14.94 10 15.21C10 15.42 10.15 15.67 10.55 15.59C13.71 14.53 16 11.53 16 8C16 3.58 12.42 0 8 0Z" transform="scale(64)"/>
  </symbol>
  <!-- Mail Icon -->
  <symbol id="mail" viewBox="0 0 24 24">
    <path fill="currentColor" d="M3 5h18a2 2 0 0 1 2 2v10a2 2 0 0 1-2 2H3a2 2 0 0 1-2-2V7a2 2 0 0 1 2-2Zm0 2v.3l9 5.4 9-5.4V7H3Zm18 2.63-8.49 5.09a1 1 0 0 1-1.02 0L3 9.63V17h18V9.63Z"/>
  </symbol>
  <!-- WhatsApp Icon -->
  <symbol id="whatsapp" viewBox="0 0 24 24">
    <path fill="currentColor" d="M12.04 2a9.91 9.91 0 0 0-8.59 14.86L2.1 22l5.28-1.31A9.93 9.93 0 1 0 12.04 2Zm0 1.93a8 8 0 1 1-3.99 14.94l-.35-.2-3.02.75.78-2.94-.23-.37a8 8 0 0 1 6.81-12.18Zm-3.2 3.91c-.18 0-.47.07-.72.34-.25.28-.95.93-.95 2.27s.98 2.64 1.11 2.82c.14.18 1.89 3.03 4.68 4.13 2.32.92 2.8.74 3.3.69.51-.05 1.64-.67 1.87-1.32.23-.65.23-1.2.16-1.32-.07-.11-.25-.18-.53-.32-.28-.13-1.64-.81-1.89-.9-.26-.09-.44-.14-.63.14-.18.28-.72.9-.88 1.08-.16.18-.32.2-.6.07-.28-.14-1.17-.43-2.23-1.38-.82-.73-1.38-1.64-1.54-1.91-.16-.28-.02-.43.12-.57.12-.12.28-.32.42-.49.14-.16.18-.28.28-.46.09-.18.05-.35-.02-.49-.07-.13-.62-1.5-.85-2.05-.22-.53-.45-.46-.62-.47h-.55Z"/>
  </symbol>
</svg>

